<?xml version="1.0" standalone="no"?>
<!DOCTYPE svg PUBLIC "-//W3C//DTD SVG 20010904//EN"
 "http://www.w3.org/TR/2001/REC-SVG-20010904/DTD/svg10.dtd">
<svg version="1.0" xmlns="http://www.w3.org/2000/svg"
 width="512.000000pt" height="512.000000pt" viewBox="0 0 512.000000 512.000000"
 preserveAspectRatio="xMidYMid meet">
<metadata>
Created by potrace 1.14, written by Peter Selinger 2001-2017
</metadata>
<g transform="translate(0.000000,512.000000) scale(0.100000,-0.100000)"
fill="#000000" stroke="none">
<path d="M2590 4496 c0 -10 -7 -13 -21 -11 -17 4 -19 2 -8 -11 10 -12 9 -13
-3 -9 -8 3 -23 -3 -33 -15 -10 -11 -24 -20 -30 -20 -7 0 -15 -9 -18 -21 -3
-12 -10 -18 -16 -14 -6 3 -14 -1 -17 -10 -6 -13 -8 -14 -15 -3 -7 10 -9 11 -9
0 0 -7 -4 -10 -10 -7 -6 3 -7 -1 -4 -9 4 -11 0 -16 -10 -16 -9 0 -16 -5 -16
-11 0 -5 -4 -7 -10 -4 -5 3 -10 1 -10 -4 0 -6 -5 -11 -11 -11 -15 0 -39 -26
-31 -35 4 -4 2 -5 -3 -4 -12 4 -63 -28 -86 -53 -9 -10 -19 -15 -22 -11 -4 3
-9 -1 -13 -10 -3 -9 -12 -13 -21 -10 -10 4 -14 2 -9 -5 3 -6 -4 -18 -16 -26
-17 -12 -25 -13 -37 -3 -12 10 -13 9 -7 -1 5 -9 1 -21 -12 -32 -15 -14 -22
-16 -25 -7 -3 7 -6 4 -6 -6 -1 -11 -5 -15 -13 -11 -7 5 -9 2 -5 -9 4 -11 2
-14 -9 -10 -7 3 -14 -1 -14 -8 0 -7 -3 -9 -7 -6 -3 4 -13 -2 -21 -14 -8 -11
-20 -18 -28 -15 -8 3 -11 0 -7 -10 3 -9 0 -12 -9 -9 -9 4 -19 -3 -26 -17 -6
-13 -11 -17 -11 -10 -1 7 -6 10 -11 7 -6 -4 -8 -11 -5 -16 6 -8 -8 -13 -27
-10 -5 0 -8 -4 -8 -10 0 -7 -9 -9 -22 -6 -22 6 -22 6 -4 -8 15 -11 16 -15 5
-17 -8 0 -19 -2 -25 -2 -6 -1 -25 -16 -43 -34 -18 -17 -37 -32 -42 -32 -6 0
-7 -6 -3 -12 4 -7 3 -10 -1 -5 -5 4 -18 -1 -29 -10 -20 -17 -20 -17 -7 2 8 11
-2 3 -21 -18 -24 -26 -38 -34 -41 -25 -3 7 -6 2 -6 -12 -1 -20 -3 -22 -11 -10
-9 13 -14 7 -11 -12 0 -4 -7 -4 -16 -1 -9 4 -14 2 -10 -3 3 -6 -3 -16 -15 -23
-16 -10 -19 -10 -13 1 3 7 -1 4 -9 -6 -9 -11 -16 -24 -16 -29 0 -4 -4 -5 -10
-2 -5 3 -10 1 -10 -6 0 -7 -6 -4 -14 6 -13 18 -14 17 -9 -10 3 -23 2 -27 -6
-15 -9 13 -11 13 -11 1 0 -11 -4 -9 -15 5 -14 18 -14 18 -8 -3 6 -27 0 -29
-21 -7 -15 14 -16 14 -16 -2 0 -13 -3 -14 -15 -4 -12 10 -15 10 -15 0 0 -9 -5
-8 -18 3 -17 15 -19 15 -36 -1 -18 -16 -19 -16 -12 3 5 17 4 18 -6 5 -15 -17
-26 -19 -47 -6 -10 6 -12 5 -7 -2 4 -7 3 -12 -3 -12 -5 0 -12 6 -14 13 -3 6
-6 8 -6 2 -1 -11 -73 -11 -90 -1 -5 4 -13 1 -17 -5 -5 -9 -11 -6 -22 7 -13 16
-14 17 -9 2 4 -10 4 -18 0 -18 -3 0 -12 8 -19 18 -10 12 -13 13 -9 2 5 -13 -5
-16 -57 -15 -43 0 -67 5 -76 15 -11 13 -11 13 -7 0 7 -21 -55 -21 -73 0 -11
13 -11 13 -7 -1 8 -21 -35 -20 -53 1 -11 13 -11 13 -7 0 4 -11 -2 -15 -20 -16
-14 -1 -25 3 -25 8 0 6 -6 5 -15 -2 -12 -10 -15 -10 -15 1 0 11 -2 11 -10 -1
-8 -13 -11 -12 -25 5 -10 13 -13 14 -10 4 6 -17 -19 -20 -43 -6 -7 5 -10 3 -7
-5 3 -7 -6 -21 -19 -31 -15 -12 -22 -25 -19 -34 3 -8 0 -19 -8 -24 -12 -8 -12
-11 1 -19 13 -9 13 -10 0 -10 -9 0 -11 -3 -5 -8 13 -9 16 -74 4 -66 -13 8 -11
-10 4 -25 9 -11 9 -13 0 -7 -7 4 -13 3 -13 -3 0 -5 6 -12 13 -14 9 -4 9 -6 0
-6 -7 -1 -13 -6 -13 -12 0 -5 5 -7 10 -4 6 3 10 2 10 -4 0 -5 -6 -12 -12 -14
-10 -4 -9 -8 2 -16 13 -9 13 -11 -2 -11 -9 0 -19 -4 -22 -9 -4 -5 2 -7 12 -4
13 3 19 -1 19 -14 0 -25 -26 -53 -43 -46 -8 3 -14 0 -14 -5 0 -6 8 -9 18 -7
10 2 25 -1 33 -6 10 -6 10 -9 2 -9 -7 0 -13 -5 -13 -11 0 -5 5 -7 10 -4 6 3
10 2 10 -4 0 -5 -6 -12 -12 -14 -10 -4 -9 -8 2 -16 13 -10 13 -11 0 -11 -13 0
-13 -1 0 -10 8 -5 11 -12 7 -16 -3 -4 -14 -1 -24 7 -15 12 -16 12 -8 -1 5 -8
10 -21 11 -28 2 -8 6 -17 10 -20 4 -4 4 2 0 13 -5 15 -4 17 4 9 9 -9 9 -17 1
-32 -13 -25 -14 -35 -3 -28 5 3 9 -1 9 -9 0 -8 -4 -12 -9 -9 -4 3 -8 1 -8 -5
0 -5 6 -12 13 -14 10 -4 10 -6 0 -6 -7 -1 -13 -6 -13 -12 0 -5 6 -7 13 -3 9 6
10 4 0 -7 -14 -14 -18 -33 -5 -25 4 2 8 -18 8 -45 0 -27 -4 -49 -9 -49 -4 0
-6 10 -2 23 5 18 4 19 -5 5 -12 -20 -3 -50 14 -41 6 3 6 1 -1 -8 -15 -16 -17
-33 -3 -24 6 3 10 1 10 -4 0 -6 -5 -11 -11 -11 -6 0 -9 -6 -6 -12 2 -7 10 -12
16 -10 7 1 10 -2 6 -8 -3 -6 -11 -8 -16 -5 -5 4 -9 1 -9 -5 0 -6 -4 -9 -9 -5
-5 3 -12 1 -16 -4 -3 -6 6 -8 22 -5 27 4 27 3 9 -11 -15 -11 -16 -15 -5 -15
12 0 15 -14 15 -60 0 -63 -3 -68 -26 -47 -12 10 -12 9 -2 -4 8 -11 9 -18 0
-27 -8 -8 -5 -9 11 -5 12 3 21 1 21 -6 0 -6 -7 -11 -15 -11 -8 0 -15 -5 -15
-11 0 -5 4 -8 9 -4 5 3 12 2 15 -3 7 -11 -25 -29 -47 -26 -11 1 -16 0 -12 -4
9 -10 55 -10 49 0 -3 4 0 8 5 8 14 0 14 -17 1 -25 -5 -3 -10 -11 -10 -16 0 -6
4 -8 8 -5 4 2 8 -18 8 -45 0 -27 -4 -49 -9 -49 -4 0 -6 10 -2 23 5 18 4 19 -5
5 -12 -20 -3 -50 14 -41 6 3 6 1 -1 -8 -15 -16 -17 -33 -3 -24 6 3 10 1 10 -4
0 -6 -5 -11 -11 -11 -6 0 -9 -6 -6 -12 2 -7 10 -12 16 -10 7 1 10 -2 6 -8 -3
-6 -11 -8 -16 -5 -5 4 -9 1 -9 -5 0 -6 -4 -9 -9 -5 -5 3 -12 1 -16 -4 -3 -6 6
-8 22 -5 27 4 27 3 9 -11 -15 -12 -16 -15 -5 -15 18 0 21 -29 6 -47 -6 -9 -6
-13 0 -13 11 0 10 -55 -2 -84 -5 -12 -5 -17 2 -13 5 3 10 0 10 -8 0 -8 -4 -12
-9 -9 -4 3 -8 0 -8 -5 0 -6 6 -11 13 -11 8 0 7 -4 -3 -10 -13 -9 -13 -10 0
-11 10 0 8 -3 -5 -9 -17 -7 -17 -9 -2 -9 20 -1 22 -12 5 -29 -9 -9 -6 -11 13
-7 22 4 23 3 6 -9 -16 -12 -16 -14 -1 -20 23 -9 31 -7 14 4 -12 7 -10 9 7 8
14 -2 19 -7 15 -17 -4 -10 -1 -12 9 -6 8 4 11 5 7 1 -4 -5 2 -17 13 -29 18
-20 18 -22 1 -41 -17 -21 -17 -21 5 -2 20 17 21 20 7 42 -9 13 -14 29 -11 36
4 9 6 8 6 -3 1 -24 27 -43 37 -28 4 7 3 9 -4 5 -6 -3 -13 -2 -17 4 -3 5 1 10
10 10 10 0 13 4 9 13 -5 6 3 4 16 -5 14 -9 24 -21 23 -27 -4 -16 31 -31 48
-20 10 6 11 9 1 9 -7 0 -10 5 -7 10 9 14 35 -6 31 -23 -1 -7 -1 -9 1 -4 3 4
10 4 16 0 7 -3 9 -3 5 2 -4 4 -3 16 2 25 8 15 6 18 -15 16 -13 -2 -22 1 -19 5
3 5 15 7 27 5 12 -3 26 -5 30 -5 5 -1 5 -7 2 -13 -4 -7 0 -6 7 3 11 13 15 14
26 3 7 -8 8 -15 2 -19 -6 -3 -10 -1 -10 6 0 7 -3 10 -6 6 -3 -3 -3 -11 1 -17
5 -8 11 -8 21 1 10 8 11 15 4 24 -7 9 -7 15 -1 19 5 4 12 2 16 -4 3 -6 17 -8
31 -6 14 3 22 1 19 -5 -9 -13 9 -11 23 3 9 9 12 9 12 0 0 -13 26 -17 33 -4 2
4 2 2 1 -5 -2 -7 1 -15 5 -18 5 -3 7 -15 5 -28 -2 -12 -1 -15 2 -7 4 8 16 25
27 38 23 24 17 31 -7 7 -9 -9 -17 -11 -21 -5 -3 5 -1 10 5 10 6 0 8 5 4 12 -5
7 -2 9 8 5 9 -3 20 -1 26 5 6 6 9 2 8 -14 0 -13 -5 -26 -11 -30 -5 -4 -6 -10
-2 -15 10 -10 28 18 20 31 -4 5 1 7 12 2 14 -5 15 -4 7 7 -8 10 -6 13 9 13 12
0 18 -5 15 -13 -13 -32 19 -50 53 -29 4 3 16 -3 26 -14 10 -11 23 -20 29 -20
6 0 -1 10 -17 21 -15 11 -24 25 -21 30 3 6 11 3 18 -6 11 -16 13 -15 27 2 13
16 12 17 -2 5 -14 -10 -18 -10 -23 4 -4 9 -4 19 -1 22 3 3 5 1 5 -5 0 -10 17
-10 73 2 17 3 27 1 27 -6 0 -8 4 -8 15 1 12 10 19 8 36 -11 16 -18 19 -20 15
-6 -4 11 -2 16 5 12 6 -4 8 -13 5 -20 -2 -7 -2 -16 2 -20 4 -4 7 -12 7 -18 1
-7 7 -10 15 -9 8 2 12 0 8 -3 -4 -4 -2 -17 4 -29 6 -11 11 -37 9 -57 -1 -27 3
-38 15 -43 13 -5 15 -9 6 -18 -15 -15 -15 -28 -1 -28 5 0 7 5 4 10 -3 6 -2 10
4 10 14 0 19 -23 9 -42 -7 -14 -5 -16 8 -11 11 4 15 3 10 -5 -3 -6 -2 -13 3
-17 15 -9 0 -37 -16 -31 -8 4 -11 1 -8 -5 4 -6 13 -8 20 -5 21 8 26 -6 7 -21
-9 -8 -11 -12 -5 -8 7 3 21 1 30 -4 15 -9 13 -11 -12 -11 -28 -1 -29 -2 -7
-10 12 -5 22 -12 22 -16 0 -3 -7 -4 -15 -1 -8 4 -17 2 -20 -4 -4 -5 -3 -9 2
-8 31 5 52 -3 50 -20 0 -11 -4 -18 -8 -15 -4 2 -11 -1 -15 -7 -4 -8 -3 -9 4
-5 7 4 12 2 12 -4 0 -6 4 -8 10 -5 9 5 15 -15 11 -37 0 -5 4 -8 10 -8 5 0 8
-4 4 -9 -3 -6 3 -15 12 -21 16 -10 16 -11 -3 -7 -13 3 -21 -1 -21 -10 0 -8 7
-11 19 -7 10 3 26 0 35 -8 9 -7 21 -13 27 -14 33 -3 37 -5 32 -12 -3 -5 1 -9
9 -9 13 0 13 2 0 17 -13 14 -12 16 5 16 10 0 16 -4 14 -8 -3 -4 2 -8 11 -8 9
0 13 5 10 10 -3 6 -1 10 5 10 7 0 9 -9 6 -22 -3 -13 -3 -17 0 -10 4 9 10 10
18 3 9 -8 13 -7 13 4 0 8 -5 11 -10 8 -6 -3 -7 -1 -3 5 9 14 76 -5 93 -27 12
-14 12 -14 6 4 -6 17 -5 18 9 7 12 -10 20 -10 42 1 14 8 23 17 19 20 -3 4 -1
7 5 7 15 0 16 -17 2 -25 -5 -3 -10 -12 -9 -18 0 -9 2 -8 6 1 2 6 10 9 15 6 7
-4 8 -2 4 4 -4 7 -2 12 4 12 6 0 9 4 6 8 -2 4 9 8 25 7 20 0 28 -4 24 -13 -3
-7 -1 -11 4 -7 5 3 12 -1 15 -7 3 -7 3 -1 1 15 -2 16 0 25 6 22 5 -4 7 -11 4
-16 -4 -5 -2 -9 4 -9 5 0 12 6 14 13 4 9 6 9 6 -1 1 -8 6 -10 14 -5 19 12 47
14 47 4 0 -6 -9 -8 -21 -6 -17 3 -19 2 -9 -10 6 -8 9 -20 5 -27 -4 -7 3 -2 14
12 17 21 22 23 30 10 5 -8 7 -18 5 -22 -3 -4 -1 -8 4 -8 6 0 9 11 8 24 0 13
-4 22 -8 20 -4 -2 -9 -1 -11 3 -3 5 15 8 39 9 24 0 44 -3 44 -7 0 -4 -9 -6
-20 -4 -13 3 -18 0 -14 -7 5 -8 1 -9 -12 -5 -18 7 -18 6 -2 -6 10 -8 16 -16
13 -19 -3 -2 2 -5 10 -5 11 0 12 4 4 13 -6 8 -6 14 0 18 5 3 12 0 14 -6 4 -10
6 -9 6 1 1 10 4 11 14 2 10 -8 14 -7 14 4 0 8 -5 11 -10 8 -6 -3 -7 -1 -3 5 9
14 76 -5 93 -27 12 -14 12 -14 6 4 -6 18 -5 18 10 7 14 -12 21 -11 46 7 25 18
30 19 35 5 3 -8 2 -12 -4 -9 -6 3 -10 1 -10 -5 0 -7 6 -10 13 -7 6 2 11 11 11
20 -1 9 5 14 15 12 9 -2 22 -4 29 -4 7 -1 10 -5 7 -11 -6 -9 5 -8 43 7 24 9
101 10 96 1 -3 -5 2 -8 11 -8 9 0 13 5 10 10 -3 5 -1 10 4 10 6 0 11 -4 11
-10 0 -5 5 -10 11 -10 5 0 8 4 5 8 -2 4 6 8 20 8 13 0 24 -4 24 -9 0 -5 -7 -7
-15 -4 -8 4 -17 2 -21 -4 -3 -6 -12 -8 -20 -5 -7 3 -15 2 -18 -2 -3 -4 4 -8
14 -9 11 -1 22 3 25 8 4 5 11 7 16 4 15 -10 51 -15 61 -9 5 3 5 11 -1 18 -7 8
-5 12 9 12 10 0 16 -4 14 -8 -3 -4 0 -8 6 -8 6 0 9 -4 6 -9 -3 -5 1 -12 9 -15
13 -4 14 -2 5 14 -14 27 4 26 23 0 12 -18 15 -18 20 -6 4 9 1 15 -5 13 -6 -1
-13 5 -15 13 -4 13 -3 13 6 0 6 -8 11 -11 11 -6 0 4 11 1 24 -8 15 -10 27 -12
31 -6 6 10 5 11 -14 14 -27 3 -14 11 19 11 21 0 36 -3 34 -7 -3 -5 2 -8 11 -8
9 0 13 4 10 10 -3 5 -1 10 4 10 6 0 11 -4 11 -10 0 -5 5 -10 11 -10 5 0 8 4 5
8 -2 4 6 8 20 8 13 0 24 -4 24 -9 0 -5 -7 -7 -15 -4 -8 4 -17 2 -21 -4 -3 -6
-12 -8 -20 -5 -7 3 -15 2 -18 -2 -3 -4 4 -8 14 -9 11 -1 22 3 25 8 4 5 11 7
16 4 15 -10 51 -15 61 -9 5 3 5 11 -1 18 -7 8 -5 12 9 12 10 0 16 -4 14 -8 -3
-4 0 -8 6 -8 6 0 9 -4 6 -9 -3 -5 1 -12 9 -15 13 -4 14 -2 5 14 -14 27 4 26
23 0 12 -18 15 -18 20 -6 4 9 1 15 -5 13 -6 -1 -13 5 -15 13 -4 13 -3 13 6 0
6 -8 11 -11 11 -6 0 4 11 1 24 -8 15 -10 27 -12 31 -6 6 10 5 11 -14 14 -27 3
-14 11 19 11 21 0 36 -3 34 -7 -3 -5 2 -8 11 -8 9 0 13 5 10 10 -3 6 -1 10 4
10 6 0 11 -4 11 -10 0 -5 5 -10 11 -10 5 0 8 4 5 8 -2 4 6 8 20 8 13 0 24 -4
24 -9 0 -5 -7 -7 -15 -4 -8 4 -17 2 -21 -4 -3 -6 -12 -8 -20 -5 -7 3 -15 2
-18 -2 -3 -4 4 -8 14 -9 11 -1 22 3 25 8 4 5 11 7 16 4 15 -10 51 -15 61 -9 5
3 5 11 -1 18 -7 8 -5 12 9 12 10 0 16 -4 14 -8 -3 -4 0 -8 6 -8 6 0 9 -4 6 -9
-3 -5 1 -12 9 -15 13 -4 14 -2 5 14 -14 27 4 26 23 0 13 -18 15 -19 21 -5 3 9
2 13 -3 10 -5 -3 -12 -1 -15 4 -4 5 2 8 11 6 10 -1 24 3 32 9 11 8 13 8 7 -1
-5 -9 1 -13 19 -13 14 0 24 4 20 9 -3 6 3 8 15 6 11 -2 22 0 25 4 2 5 18 7 35
6 17 -1 28 0 25 4 -4 3 -11 6 -17 6 -6 0 -12 8 -14 18 -2 13 1 15 10 8 9 -8
12 -3 10 20 -2 23 2 29 12 25 8 -3 14 -1 14 4 0 6 -4 10 -10 10 -5 0 -10 5
-10 11 0 5 4 8 9 5 5 -3 12 1 15 10 4 10 2 13 -7 8 -8 -5 -8 -2 2 9 7 9 11 24
7 32 -3 9 -2 13 4 10 6 -4 8 6 6 25 -3 25 -1 28 11 18 11 -9 13 -8 11 3 -2 8
3 13 10 11 8 -1 11 2 7 8 -3 6 -9 8 -13 6 -4 -2 -8 7 -8 20 -2 20 0 22 10 12
6 -7 10 -11 9 -9 -2 2 3 11 10 19 9 12 9 14 0 9 -9 -6 -12 1 -10 21 2 30 10
34 37 17 9 -5 8 0 -4 13 -11 12 -14 22 -8 22 7 0 12 5 12 11 0 5 -4 7 -10 4
-20 -13 -9 7 17 29 24 20 25 26 14 40 -9 11 -10 16 -2 16 6 0 11 5 11 11 0 5
-5 7 -11 4 -6 -4 -5 2 2 13 7 12 17 18 23 15 5 -4 6 -1 0 8 -5 8 -9 21 -9 29
0 18 25 51 34 46 4 -3 6 15 6 39 -1 30 2 42 9 36 7 -6 11 0 12 17 1 23 8 66
14 82 2 3 2 8 1 13 0 4 4 7 9 7 6 0 8 11 6 25 -3 15 -1 23 5 20 5 -4 7 -10 5
-14 -3 -4 1 -8 9 -8 10 0 12 4 5 12 -5 7 -7 15 -3 18 3 4 0 7 -7 7 -9 0 -5 9
10 26 21 21 22 27 10 34 -12 8 -12 10 -1 10 7 0 11 6 8 15 -4 8 -2 17 4 21 6
3 8 13 5 21 -5 11 -2 13 11 9 14 -6 15 -4 6 5 -14 14 4 62 19 52 6 -3 5 4 -1
16 -10 18 -9 20 6 14 16 -6 17 -5 3 12 -14 17 -13 18 2 12 10 -3 20 -1 24 5 4
6 3 8 -3 5 -6 -4 -14 0 -17 9 -3 8 -2 13 3 10 5 -3 12 1 15 10 3 8 2 12 -4 9
-13 -8 9 56 26 76 11 12 11 18 1 29 -10 10 -9 11 1 5 9 -5 12 -1 10 11 -2 14
2 18 16 16 18 -3 18 -2 2 13 -18 18 -21 30 -6 20 7 -4 9 2 7 17 -5 27 25 84
42 80 6 -1 11 2 11 8 0 5 -4 10 -10 10 -5 0 -8 8 -6 18 6 34 18 52 30 45 8 -5
8 -3 0 8 -14 19 -12 38 6 49 8 5 11 10 5 10 -5 0 -3 5 5 10 12 8 12 10 1 10
-9 0 -7 5 6 18 10 9 12 13 4 7 -12 -8 -12 -7 -3 11 6 12 8 24 5 28 -3 3 -1 6
6 6 7 0 9 5 5 12 -5 8 -2 9 10 5 12 -5 15 -3 9 6 -4 6 -8 22 -9 34 -1 17 2 20
12 12 10 -8 11 -5 7 11 -4 13 0 26 8 31 11 7 11 9 1 9 -7 0 -10 5 -7 10 4 6
12 7 18 4 8 -5 8 -3 0 6 -10 11 -9 18 5 34 12 14 13 17 2 11 -12 -7 -13 -6 -3
7 7 8 10 18 6 21 -3 4 -2 7 4 7 6 0 10 11 9 24 0 13 -4 22 -7 20 -4 -2 -10 3
-13 12 -4 9 -9 14 -12 11 -7 -7 -60 44 -57 55 2 4 -4 5 -13 1 -18 -7 -67 40
-56 53 4 4 2 4 -5 1 -16 -10 -44 3 -36 16 4 6 0 8 -10 4 -17 -6 -21 2 -18 33
2 13 1 13 -9 0 -8 -12 -12 -13 -19 -2 -4 8 -12 14 -17 15 -5 1 -8 6 -6 11 2 5
-4 6 -13 3 -9 -4 -15 -1 -15 8 0 8 -6 14 -12 12 -7 -1 -12 4 -10 11 1 8 -2 11
-7 8 -5 -4 -16 0 -24 8 -8 8 -17 12 -21 9 -3 -3 -8 2 -12 11 -3 9 -12 16 -20
16 -8 0 -14 5 -14 10 0 6 -7 10 -15 10 -8 0 -15 4 -15 8 0 5 -11 15 -25 22
-14 7 -25 20 -25 27 0 8 -4 11 -10 8 -5 -3 -10 0 -10 7 0 9 -3 9 -10 -2 -8
-13 -10 -12 -10 3 0 10 -4 15 -10 12 -5 -3 -10 -1 -10 5 0 6 -5 8 -12 4 -9 -5
-8 -2 1 9 12 15 12 17 -1 12 -8 -3 -27 6 -42 20 -15 14 -33 25 -40 25 -8 0
-17 7 -20 16 -3 8 -10 12 -16 9 -6 -3 -10 4 -10 17 0 18 -2 20 -10 8 -9 -13
-14 -7 -11 12 0 4 -6 5 -14 2 -8 -4 -17 1 -21 10 -3 9 -10 13 -15 10 -5 -3 -9
2 -9 11 0 9 -4 13 -10 10 -5 -3 -10 -1 -10 5 0 6 -4 8 -10 5 -5 -3 -10 2 -10
12 0 15 -2 16 -10 3 -8 -13 -10 -12 -10 4 0 12 -5 16 -16 12 -8 -3 -13 -2 -11
2 3 4 -5 16 -16 27 -11 12 -17 14 -13 5 4 -8 0 -6 -8 4 -9 11 -16 16 -16 10 0
-5 -11 4 -25 20 -15 17 -25 23 -25 15 0 -9 -5 -6 -12 6 -13 24 -29 35 -39 29
-4 -2 -10 5 -14 16 -4 11 -10 18 -15 15 -5 -3 -17 3 -26 14 -10 11 -24 17 -33
13 -14 -5 -14 -4 -1 14 8 10 10 16 5 11 -4 -4 -18 1 -29 10 -20 18 -20 17 -6
-2 14 -20 14 -20 -7 -1 -13 10 -20 23 -16 29 4 6 0 8 -10 4 -10 -3 -17 -2 -17
3 0 6 -6 10 -13 10 -7 0 -19 9 -27 19 -7 11 -17 18 -22 15 -4 -3 -8 2 -8 11 0
9 -4 13 -10 10 -5 -3 -10 -1 -10 4 0 6 -6 10 -12 9 -7 -2 -12 3 -10 10 1 8 -2
11 -7 7 -6 -3 -18 3 -28 15 -10 11 -21 20 -26 20 -5 0 -15 7 -24 15 -8 8 -19
12 -25 9 -6 -4 -9 -3 -6 2 3 5 -4 18 -15 29 -11 11 -17 14 -13 8 4 -7 2 -13
-3 -13 -6 0 -11 7 -11 15 0 8 -6 15 -14 15 -7 0 -21 10 -30 23 -9 12 -14 15
-10 7 6 -11 2 -11 -13 3 -11 9 -23 14 -28 10 -4 -5 -5 -3 -2 3 6 11 -19 29
-35 26 -5 -1 -8 5 -8 13 0 8 -9 15 -20 15 -11 0 -20 5 -20 10 0 6 -4 10 -10
10 -5 0 -10 -6 -10 -14z m-1245 -826 c3 -5 1 -10 -4 -10 -6 0 -11 5 -11 10 0
6 2 10 4 10 3 0 8 -4 11 -10z m-575 -1690 c0 -5 -5 -12 -10 -15 -6 -4 -8 -11
-5 -16 3 -5 0 -6 -8 -3 -15 5 -19 34 -5 34 5 0 6 4 3 10 -3 6 1 7 9 4 9 -3 16
-10 16 -14z m438 -2 c-7 -21 -42 -38 -58 -27 -13 8 -13 11 1 22 21 16 61 19
57 5z m-398 -18 c0 -5 -2 -10 -4 -10 -3 0 -8 5 -11 10 -3 6 -1 10 4 10 6 0 11
-4 11 -10z m2988 -122 c-2 -6 -10 -14 -16 -16 -7 -2 -10 2 -6 12 7 18 28 22
22 4z m-2323 -38 c3 -5 1 -10 -4 -10 -6 0 -11 5 -11 10 0 6 2 10 4 10 3 0 8
-4 11 -10z m413 -415 c29 1 31 0 18 -13 -12 -12 -18 -13 -29 -4 -8 7 -16 10
-19 7 -3 -3 -11 3 -19 12 -12 16 -12 17 1 7 8 -6 30 -10 48 -9z m480 0 c29 1
31 0 18 -13 -12 -12 -18 -13 -29 -4 -8 7 -16 10 -19 7 -3 -3 -11 3 -19 12 -12
16 -12 17 1 7 8 -6 30 -10 48 -9z m397 -17 c5 -4 0 -6 -12 -6 -13 1 -19 7 -16
15 3 8 8 10 12 6 3 -4 10 -11 16 -15z m320 0 c5 -4 0 -6 -12 -6 -13 1 -19 7
-16 15 3 8 8 10 12 6 3 -4 10 -11 16 -15z m320 0 c5 -4 0 -6 -12 -6 -13 1 -19
7 -16 15 3 8 8 10 12 6 3 -4 10 -11 16 -15z"/>
<path d="M1176 1968 c3 -5 10 -6 15 -3 13 9 11 12 -6 12 -8 0 -12 -4 -9 -9z"/>
<path d="M2135 4180 c-3 -5 -1 -10 4 -10 6 0 11 5 11 10 0 6 -2 10 -4 10 -3 0
-8 -4 -11 -10z"/>
<path d="M5106 2719 c0 -670 3 -1221 6 -1224 3 -3 4 544 4 1214 -1 671 -3
1222 -6 1224 -3 3 -5 -543 -4 -1214z"/>
<path d="M543 3516 c3 -8 2 -17 -4 -20 -5 -2 -4 -3 2 -2 15 3 21 36 7 36 -6 0
-8 -6 -5 -14z"/>
<path d="M513 3365 c0 -8 4 -12 9 -9 5 3 6 10 3 15 -9 13 -12 11 -12 -6z"/>
<path d="M540 3319 c0 -5 5 -7 10 -4 6 3 10 8 10 11 0 2 -4 4 -10 4 -5 0 -10
-5 -10 -11z"/>
<path d="M4253 3171 c0 -11 5 -18 9 -15 4 3 5 11 1 19 -7 21 -12 19 -10 -4z"/>
<path d="M515 2969 c-4 -6 -5 -12 -2 -15 2 -3 7 2 10 11 7 17 1 20 -8 4z"/>
<path d="M4170 2940 c0 -5 5 -10 11 -10 5 0 7 5 4 10 -3 6 -8 10 -11 10 -2 0
-4 -4 -4 -10z"/>
<path d="M510 2906 c0 -2 7 -7 16 -10 8 -3 12 -2 9 4 -6 10 -25 14 -25 6z"/>
<path d="M4130 2859 c0 -5 5 -7 10 -4 6 3 10 8 10 11 0 2 -4 4 -10 4 -5 0 -10
-5 -10 -11z"/>
<path d="M4085 2760 c-3 -6 1 -7 9 -4 18 7 21 14 7 14 -6 0 -13 -4 -16 -10z"/>
<path d="M506 2742 c-3 -5 1 -9 9 -9 8 0 12 4 9 9 -3 4 -7 8 -9 8 -2 0 -6 -4
-9 -8z"/>
<path d="M540 2739 c0 -5 5 -7 10 -4 6 3 10 8 10 11 0 2 -4 4 -10 4 -5 0 -10
-5 -10 -11z"/>
<path d="M4096 2733 c-6 -14 -5 -15 5 -6 7 7 10 15 7 18 -3 3 -9 -2 -12 -12z"/>
<path d="M546 2707 c3 -10 9 -15 12 -12 3 3 0 11 -7 18 -10 9 -11 8 -5 -6z"/>
<path d="M4035 2581 c-3 -5 -2 -12 3 -15 5 -3 9 1 9 9 0 17 -3 19 -12 6z"/>
<path d="M515 2489 c-4 -6 -5 -12 -2 -15 2 -3 7 2 10 11 7 17 1 20 -8 4z"/>
<path d="M510 2426 c0 -2 7 -7 16 -10 8 -3 12 -2 9 4 -6 10 -25 14 -25 6z"/>
<path d="M3970 2406 c0 -2 7 -7 16 -10 8 -3 12 -2 9 4 -6 10 -25 14 -25 6z"/>
<path d="M3999 2373 c-13 -16 -12 -17 4 -4 16 13 21 21 13 21 -2 0 -10 -8 -17
-17z"/>
<path d="M3961 2356 c-9 -11 -9 -16 1 -22 7 -4 10 -4 6 1 -4 4 -3 14 3 22 6 7
9 13 6 13 -2 0 -10 -6 -16 -14z"/>
<path d="M506 2262 c-3 -5 1 -9 9 -9 8 0 12 4 9 9 -3 4 -7 8 -9 8 -2 0 -6 -4
-9 -8z"/>
<path d="M540 2259 c0 -5 5 -7 10 -4 6 3 10 8 10 11 0 2 -4 4 -10 4 -5 0 -10
-5 -10 -11z"/>
<path d="M3930 2266 c0 -2 7 -7 16 -10 8 -3 12 -2 9 4 -6 10 -25 14 -25 6z"/>
<path d="M536 2220 c5 -8 9 -21 10 -28 2 -8 5 -17 8 -20 4 -3 5 4 3 16 -2 12
-9 28 -17 35 -10 10 -11 9 -4 -3z"/>
<path d="M3899 2138 c-5 -18 -6 -38 -1 -34 7 8 12 36 6 36 -2 0 -4 -1 -5 -2z"/>
<path d="M530 2001 c0 -6 4 -13 10 -16 6 -3 7 1 4 9 -7 18 -14 21 -14 7z"/>
<path d="M899 1978 c11 -15 11 -21 1 -33 -8 -9 -8 -15 -2 -15 6 0 12 5 14 11
2 6 16 12 31 12 15 0 27 0 25 1 -2 1 -12 8 -22 16 -13 10 -17 10 -12 3 10 -18
-4 -16 -28 5 -20 16 -20 16 -7 0z"/>
<path d="M602 1964 c10 -10 20 -16 22 -13 3 3 -5 11 -17 18 -21 13 -21 12 -5
-5z"/>
<path d="M695 1970 c4 -6 1 -18 -6 -26 -10 -12 -9 -13 5 -8 18 7 22 44 5 44
-5 0 -7 -5 -4 -10z"/>
<path d="M1270 1957 c-11 -11 -17 -23 -14 -26 3 -3 9 1 15 9 8 13 10 13 20 0
8 -12 9 -9 3 10 -6 22 -5 23 9 12 8 -7 13 -23 11 -35 -4 -21 -4 -21 5 -2 5 11
10 16 10 11 1 -5 7 -3 14 3 24 19 27 -1 4 -21 l-22 -20 29 17 c28 17 29 17 22
-1 -4 -10 -4 -15 0 -11 4 4 13 2 21 -4 9 -9 13 -8 13 0 0 6 -4 11 -10 11 -5 0
-10 5 -10 11 0 5 6 7 13 3 6 -4 -1 7 -17 24 -20 22 -33 29 -41 22 -7 -5 -15
-7 -19 -3 -14 15 -38 11 -56 -10z m75 3 c8 7 18 3 31 -13 19 -22 19 -22 -2 -5
-14 12 -24 14 -31 7 -7 -7 -14 -4 -23 8 -12 15 -12 16 0 6 9 -8 18 -9 25 -3z"/>
<path d="M3825 1971 c-3 -5 0 -13 6 -17 7 -4 9 -3 5 4 -3 5 0 13 6 15 9 4 10
6 1 6 -6 1 -14 -3 -18 -8z"/>
<path d="M556 1953 c-6 -14 -5 -15 5 -6 7 7 10 15 7 18 -3 3 -9 -2 -12 -12z"/>
<path d="M980 1960 c0 -5 6 -10 14 -10 8 0 17 -6 19 -12 4 -10 6 -10 6 -1 1 7
-8 17 -19 23 -14 7 -20 7 -20 0z"/>
<path d="M830 1939 c0 -5 5 -7 10 -4 6 3 13 -1 16 -9 3 -9 10 -13 16 -10 5 3
1 12 -9 20 -22 16 -33 18 -33 3z"/>
<path d="M1114 1942 c3 -5 0 -12 -6 -15 -7 -2 -10 -7 -7 -11 3 -4 12 0 18 8 9
11 9 16 0 22 -7 4 -9 3 -5 -4z"/>
<path d="M716 1913 c-6 -14 -5 -15 5 -6 7 7 10 15 7 18 -3 3 -9 -2 -12 -12z"/>
<path d="M760 1920 c-9 -6 -10 -10 -3 -10 6 0 15 5 18 10 8 12 4 12 -15 0z"/>
<path d="M1109 1883 c-13 -16 -12 -17 4 -4 9 7 17 15 17 17 0 8 -8 3 -21 -13z"/>
<path d="M1370 1878 c0 -6 3 -8 7 -5 3 4 13 1 22 -6 14 -11 14 -10 2 6 -15 20
-31 22 -31 5z"/>
<path d="M1425 1875 c4 -11 8 -25 8 -32 0 -7 4 -10 9 -7 4 3 3 15 -3 27 -16
30 -24 37 -14 12z"/>
<path d="M1400 1820 c8 -5 20 -10 25 -10 6 0 3 5 -5 10 -8 5 -19 10 -25 10 -5
0 -3 -5 5 -10z"/>
<path d="M3756 1722 c-3 -5 1 -9 9 -9 8 0 12 4 9 9 -3 4 -7 8 -9 8 -2 0 -6 -4
-9 -8z"/>
<path d="M1455 1691 c-3 -5 -2 -12 3 -15 5 -3 9 1 9 9 0 17 -3 19 -12 6z"/>
<path d="M1490 1670 c0 -5 5 -10 11 -10 5 0 7 5 4 10 -3 6 -8 10 -11 10 -2 0
-4 -4 -4 -10z"/>
<path d="M3716 1562 c-3 -5 1 -9 9 -9 8 0 12 4 9 9 -3 4 -7 8 -9 8 -2 0 -6 -4
-9 -8z"/>
<path d="M1550 1459 c0 -5 5 -7 10 -4 6 3 10 8 10 11 0 2 -4 4 -10 4 -5 0 -10
-5 -10 -11z"/>
<path d="M1616 1377 c3 -10 9 -15 12 -12 3 3 0 11 -7 18 -10 9 -11 8 -5 -6z"/>
<path d="M3615 1380 c-4 -6 -10 -8 -14 -6 -4 3 -8 -1 -8 -8 0 -7 6 -13 13 -13
7 0 12 5 11 11 -1 6 4 10 11 8 8 -1 11 2 7 8 -8 13 -12 13 -20 0z"/>
<path d="M1974 1369 c-3 -6 -1 -16 5 -22 9 -9 10 -7 5 7 -6 15 -4 17 6 11 9
-5 11 -4 6 3 -9 15 -13 15 -22 1z"/>
<path d="M2463 1373 c4 -3 1 -13 -6 -22 -11 -14 -10 -14 5 -2 16 12 16 31 1
31 -4 0 -3 -3 0 -7z"/>
<path d="M2540 1365 c-8 -9 -8 -15 -2 -15 6 0 12 6 15 13 3 9 7 9 19 -1 11 -9
18 -10 23 -2 3 5 5 10 3 11 -32 8 -48 6 -58 -6z"/>
<path d="M2616 1365 c4 -8 11 -15 16 -15 6 0 5 6 -2 15 -7 8 -14 15 -16 15 -2
0 -1 -7 2 -15z"/>
<path d="M2936 1365 c4 -8 11 -15 16 -15 6 0 5 6 -2 15 -7 8 -14 15 -16 15 -2
0 -1 -7 2 -15z"/>
<path d="M3256 1365 c4 -8 11 -15 16 -15 6 0 5 6 -2 15 -7 8 -14 15 -16 15 -2
0 -1 -7 2 -15z"/>
<path d="M1790 1358 c0 -4 4 -8 9 -8 6 0 12 4 15 8 3 5 -1 9 -9 9 -8 0 -15 -4
-15 -9z"/>
<path d="M2055 1360 c-3 -5 -1 -10 4 -10 6 0 11 5 11 10 0 6 -2 10 -4 10 -3 0
-8 -4 -11 -10z"/>
<path d="M2270 1358 c0 -4 4 -8 9 -8 6 0 12 4 15 8 3 5 -1 9 -9 9 -8 0 -15 -4
-15 -9z"/>
<path d="M1720 1351 c0 -6 4 -13 10 -16 6 -3 7 1 4 9 -7 18 -14 21 -14 7z"/>
<path d="M1647 1339 c7 -7 15 -10 18 -7 3 3 -2 9 -12 12 -14 6 -15 5 -6 -5z"/>
<path d="M2476 1342 c-2 -4 4 -8 14 -8 10 0 16 4 14 8 -3 4 -9 8 -14 8 -5 0
-11 -4 -14 -8z"/>
<path d="M2695 1340 c-3 -5 -1 -10 4 -10 6 0 11 5 11 10 0 6 -2 10 -4 10 -3 0
-8 -4 -11 -10z"/>
<path d="M2776 1342 c-2 -4 -1 -14 4 -22 7 -11 9 -9 7 8 -1 24 -3 26 -11 14z"/>
<path d="M3015 1340 c-3 -5 -1 -10 4 -10 6 0 11 5 11 10 0 6 -2 10 -4 10 -3 0
-8 -4 -11 -10z"/>
<path d="M3096 1342 c-2 -4 -1 -14 4 -22 7 -11 9 -9 7 8 -1 24 -3 26 -11 14z"/>
<path d="M3335 1340 c-3 -5 -1 -10 4 -10 6 0 11 5 11 10 0 6 -2 10 -4 10 -3 0
-8 -4 -11 -10z"/>
<path d="M3416 1342 c-2 -4 -1 -14 4 -22 7 -11 9 -9 7 8 -1 24 -3 26 -11 14z"/>
<path d="M2575 1329 c-4 -6 -5 -12 -2 -15 2 -3 7 2 10 11 7 17 1 20 -8 4z"/>
<path d="M2895 1329 c-4 -6 -5 -12 -2 -15 2 -3 7 2 10 11 7 17 1 20 -8 4z"/>
<path d="M3215 1329 c-4 -6 -5 -12 -2 -15 2 -3 7 2 10 11 7 17 1 20 -8 4z"/>
<path d="M3633 1325 c0 -8 4 -12 9 -9 5 3 6 10 3 15 -9 13 -12 11 -12 -6z"/>
<path d="M1906 1318 c3 -4 9 -8 15 -8 5 0 9 4 9 8 0 5 -7 9 -15 9 -8 0 -12 -4
-9 -9z"/>
<path d="M2384 1322 c4 -3 14 -7 22 -8 9 -1 13 0 10 4 -4 3 -14 7 -22 8 -9 1
-13 0 -10 -4z"/>
<path d="M3576 1313 c-6 -14 -5 -15 5 -6 7 7 10 15 7 18 -3 3 -9 -2 -12 -12z"/>
</g>
</svg>
